<?xml version="1.0" encoding="utf-8"?>
<!-- Generator: Adobe Illustrator 24.0.2, SVG Export Plug-In . SVG Version: 6.00 Build 0)  -->
<svg version="1.1" xmlns="http://www.w3.org/2000/svg" xmlns:xlink="http://www.w3.org/1999/xlink" x="0px" y="0px"
	 viewBox="0 0 598 224.8" style="enable-background:new 0 0 598 224.8;" xml:space="preserve">
<style type="text/css">
	.st0{fill:#FF4F0A;}
	.st1{fill:#FFFFFF;}
</style>
<g id="Layer_1">
	<rect x="224.8" y="13.6" class="st0" width="47.9" height="138"/>
	
		<rect x="224.8" y="13.6" transform="matrix(4.488105e-11 -1 1 4.488105e-11 166.1575 331.3228)" class="st0" width="47.9" height="138"/>
	<rect x="71.5" y="13.6" class="st0" width="47.9" height="138"/>
	
		<rect x="71.5" y="13.6" transform="matrix(4.488105e-11 -1 1 4.488105e-11 12.8976 178.063)" class="st0" width="47.9" height="138"/>
	<rect x="383" y="12.3" class="st0" width="47.9" height="138"/>
	
		<rect x="383" y="12.3" transform="matrix(4.488105e-11 -1 1 4.488105e-11 325.6063 488.2205)" class="st0" width="47.9" height="138"/>
</g>
<g id="Layer_2">
	<polygon points="179.7,82.6 272.7,58.6 248.7,151.6 224.8,151.6 224.8,106.5 179.7,106.5 	"/>
	<polygon points="26.5,82.6 119.4,58.6 95.5,151.6 71.5,151.6 71.5,106.5 26.5,106.5 	"/>
	<polygon points="337.9,81.3 430.9,57.4 406.9,150.3 383,150.3 383,105.3 337.9,105.3 	"/>
	<polygon class="st0" points="340.1,82.5 425.9,60.7 382.2,102.8 340.4,103.4 	"/>
	<line class="st1" x1="383" y1="105.3" x2="337.9" y2="105.3"/>
</g>
<g id="Layer_3">
	<polyline class="st1" points="221.7,106.5 224.8,106.5 224.8,109.1 272.7,58.6 222.2,106.5 	"/>
	<polyline class="st0" points="68.4,106.5 71.5,106.5 71.5,109.1 119.4,58.6 69,106.5 	"/>
</g>
</svg>
